<?xml version="1.0" encoding="utf-8"?>
<!-- Generator: Adobe Illustrator 25.3.1, SVG Export Plug-In . SVG Version: 6.00 Build 0)  -->
<svg version="1.1" id="Layer_1" xmlns="http://www.w3.org/2000/svg" xmlns:xlink="http://www.w3.org/1999/xlink" x="0px" y="0px"
	 viewBox="0 0 256 256" style="enable-background:new 0 0 256 256;" xml:space="preserve">
<style type="text/css">
	.st0{display:none;fill:#FFFFFF;}
	.st1{fill:#FFFFFF;}
</style>
<path class="st0" d="M140.7,163.9V116c0,0,6.9-30.5,17-30.7c10.1-0.2-2.6,35.7-2.6,35.7s15.5-28.7,25.2-25
	c9.7,3.6-10.5,34.3-10.5,34.3s9.1-6.7,16.1-1.2c7.1,5.4-17.2,25.4-17.2,25.4l-1.2,1.8c0,0,11.3-5,3,11.5s-20,12.5-20,12.5
	S140.7,175.6,140.7,163.9z"/>
<g>
	<path class="st1" d="M176.9,73.3l4.6-3.1c6.4-15,9.8-29.4,0.9-32.8c-20-7.5-52,51.5-52,51.5s26.2-74,5.4-73.6
		C115,15.9,100.9,54,100.9,78.7s0,45.1,0,45.1L176.9,73.3z"/>
	<path class="st1" d="M176.7,135.3l-8.2,11.6l-4.9,6.9c11.2-9.9,37.6-34.8,32.4-45.7L176.7,135.3z"/>
	<path class="st1" d="M158.5,161l-34,48l-1.9,2.7c5.3,1.1,25.2,3.2,39.8-26.1C176,158.3,164,159.4,158.5,161z"/>
</g>
<g>
	<polygon class="st1" points="159.8,144.8 194.2,96.4 160,96.4 87,144.8 	"/>
	<polygon class="st1" points="153.4,153.9 73.4,153.9 31.3,181.8 52.5,202.3 119,202.3 	"/>
	<polygon class="st1" points="200.6,87.3 224.7,53.4 173.6,87.3 	"/>
	<polygon class="st1" points="61.9,211.4 92,240.5 112.6,211.4 	"/>
</g>
</svg>
